<?xml version="1.0" standalone="no"?>
<!DOCTYPE svg PUBLIC "-//W3C//DTD SVG 20010904//EN"
 "http://www.w3.org/TR/2001/REC-SVG-20010904/DTD/svg10.dtd">
<svg version="1.0" xmlns="http://www.w3.org/2000/svg"
 width="1920.000000pt" height="1920.000000pt" viewBox="0 0 1920.000000 1920.000000"
 preserveAspectRatio="xMidYMid meet">
<metadata>
Created by potrace 1.14, written by Peter Selinger 2001-2017
</metadata>
<g transform="translate(0.000000,1920.000000) scale(0.100000,-0.100000)"
fill="#000000" stroke="none">
<path d="M0 9600 l0 -9600 9600 0 9600 0 0 9600 0 9600 -9600 0 -9600 0 0
-9600z m9551 5360 c72 -14 126 -51 150 -103 27 -60 25 -67 -21 -67 -34 0 -40
3 -40 20 0 34 -28 67 -71 84 -72 29 -149 13 -179 -37 -47 -77 -9 -131 123
-172 152 -47 207 -96 207 -185 0 -98 -84 -163 -210 -163 -56 0 -80 6 -127 29
-61 31 -103 79 -103 120 0 20 5 24 33 24 28 0 34 -5 48 -39 44 -105 249 -106
280 -2 22 73 -24 118 -156 156 -73 20 -140 58 -160 89 -69 105 -6 223 130 247
22 3 41 7 41 8 1 0 25 -4 55 -9z m-2323 -29 c59 -30 82 -71 82 -145 0 -57 -2
-61 -44 -102 -44 -42 -44 -42 -21 -52 43 -20 60 -59 66 -160 3 -51 11 -98 18
-105 6 -6 11 -15 11 -19 0 -13 -78 -9 -87 5 -4 6 -10 54 -13 106 -6 90 -7 95
-38 122 -31 28 -36 29 -132 29 l-100 0 0 -135 0 -135 -40 0 -40 0 0 311 0 312
148 -5 c126 -4 153 -8 190 -27z m291 -68 c27 -54 65 -126 84 -161 l34 -63 82
161 82 160 46 0 c45 0 45 0 31 -22 -8 -13 -58 -104 -111 -204 l-97 -180 0
-107 0 -107 -35 0 -35 0 0 107 0 106 -105 197 c-58 108 -105 200 -105 203 0 4
18 7 40 7 l40 0 49 -97z m742 -204 c62 -166 116 -305 117 -310 2 -5 -14 -9
-36 -9 l-40 0 -28 80 -28 81 -135 -3 -135 -3 -27 -75 -27 -75 -40 -3 -40 -3
74 193 c184 477 162 428 198 428 l32 0 115 -301z m445 59 l149 -241 3 241 2
242 40 0 40 0 0 -310 0 -310 -38 0 -38 0 -149 241 -150 242 -3 -242 -2 -241
-40 0 -40 0 0 310 0 310 38 0 39 0 149 -242z m1234 102 l0 -140 150 0 150 0 0
140 0 140 40 0 40 0 0 -310 0 -310 -40 0 -40 0 0 140 0 140 -150 0 -150 0 0
-140 0 -140 -40 0 -40 0 0 310 0 310 40 0 40 0 0 -140z m891 -161 c62 -166
116 -305 117 -310 2 -5 -14 -9 -36 -9 l-40 0 -28 80 -28 81 -135 -3 -135 -3
-27 -75 -27 -75 -40 -3 -40 -3 74 193 c184 477 162 428 198 428 l32 0 115
-301z m299 -9 l0 -310 -40 0 -40 0 0 310 0 310 40 0 40 0 0 -310z m250 175 l0
-135 34 0 c32 0 43 9 146 135 108 132 112 135 151 135 21 0 39 -2 39 -5 0 -3
-52 -68 -115 -144 -63 -77 -115 -142 -115 -145 0 -4 52 -73 116 -154 64 -81
121 -153 127 -159 7 -10 -1 -13 -36 -13 l-46 0 -113 145 c-109 139 -114 144
-150 145 l-38 0 0 -145 0 -145 -40 0 -40 0 0 310 0 310 40 0 40 0 0 -135z
m550 -5 l0 -140 150 0 150 0 0 140 0 140 40 0 40 0 0 -310 0 -310 -40 0 -40 0
0 140 0 140 -150 0 -150 0 0 -140 0 -140 -40 0 -40 0 0 310 0 310 40 0 40 0 0
-140z m-5895 -3905 l0 -830 -121 -3 -122 -3 -7 38 c-15 79 -37 91 -82 44 -36
-37 -106 -75 -165 -89 -95 -24 -177 -13 -293 40 -28 12 -115 93 -115 107 0 6
-4 11 -8 11 -13 0 -79 140 -86 180 -36 208 -38 234 -26 355 7 66 16 124 21
130 5 5 9 22 9 37 0 26 5 40 31 88 5 8 16 30 25 49 10 18 36 52 59 75 95 97
235 142 363 116 70 -14 145 -49 174 -82 9 -11 25 -18 35 -16 17 3 18 24 24
293 3 160 6 291 7 293 1 1 64 1 140 0 l137 -3 0 -830z m9135 540 c5 -272 6
-290 23 -293 11 -2 31 7 45 20 126 115 379 112 511 -6 68 -61 133 -179 146
-263 4 -24 11 -45 16 -49 12 -7 12 -391 0 -398 -5 -3 -12 -23 -16 -43 -10 -57
-29 -113 -37 -113 -5 0 -8 -9 -8 -20 0 -23 -25 -55 -91 -120 -54 -53 -94 -74
-185 -99 -109 -29 -253 3 -334 76 -58 52 -85 56 -94 12 -3 -17 -6 -42 -6 -56
l0 -24 -127 3 -128 3 -3 820 c-1 451 0 826 3 833 3 9 38 12 142 10 l138 -3 5
-290z m-4711 139 c22 -36 41 -69 41 -74 0 -5 6 -15 13 -22 10 -11 91 -144 177
-293 9 -16 38 -64 63 -105 123 -203 252 -419 271 -454 24 -43 44 -56 57 -35 5
8 9 247 9 532 l0 518 148 -3 147 -3 0 -785 0 -785 -147 -3 -147 -3 -25 34
c-14 19 -26 37 -26 40 0 4 -19 37 -43 74 -24 38 -46 75 -50 83 -4 8 -21 38
-37 65 -17 28 -38 65 -47 83 -9 17 -20 32 -25 32 -4 0 -8 4 -8 9 0 6 -37 72
-83 148 -46 76 -105 176 -132 223 -27 47 -54 92 -60 100 -7 8 -23 35 -36 60
-13 25 -27 49 -32 55 -38 52 -45 58 -60 52 -16 -6 -17 -52 -17 -532 l0 -525
-145 0 -145 0 0 790 0 790 149 0 149 0 41 -66z m-8549 39 c69 -10 101 -21 197
-65 51 -24 128 -105 161 -170 86 -166 58 -411 -61 -536 -18 -19 -62 -54 -99
-78 -38 -24 -68 -49 -68 -57 0 -7 15 -42 34 -77 31 -60 158 -307 247 -480 22
-41 39 -78 39 -82 0 -5 -67 -8 -149 -8 l-150 0 -18 28 c-10 15 -32 54 -48 87
-16 33 -33 62 -37 63 -4 2 -8 9 -8 15 0 7 -16 44 -36 82 -20 39 -61 118 -90
177 -30 59 -61 114 -70 122 -12 13 -39 16 -132 16 -64 0 -127 -3 -139 -6 l-23
-6 0 -293 0 -293 -142 1 -143 2 -3 788 -2 788 337 -5 c186 -2 367 -8 403 -13z
m1265 -377 c89 -16 179 -59 230 -111 43 -43 89 -128 101 -185 4 -19 10 -206
14 -415 4 -209 10 -395 15 -412 l7 -33 -141 0 c-140 0 -141 0 -141 23 0 24
-25 67 -40 67 -5 0 -24 -15 -42 -33 -95 -95 -279 -123 -418 -65 -61 26 -76 36
-124 83 -52 51 -63 70 -86 139 -33 103 4 253 80 327 95 93 253 139 478 139 53
0 103 4 110 9 10 6 12 24 9 67 -8 87 -18 134 -28 134 -5 0 -9 6 -9 13 0 16
-64 57 -91 57 -11 0 -29 5 -40 10 -38 21 -160 -27 -180 -69 -37 -82 -22 -76
-178 -79 -78 -1 -141 1 -141 5 0 10 21 74 34 103 78 176 326 272 581 226z
m3738 3 c71 -11 86 -15 157 -48 84 -38 171 -124 213 -208 12 -24 25 -43 29
-43 4 0 8 -13 8 -29 0 -17 4 -32 9 -35 23 -15 38 -272 21 -371 -6 -38 -16 -78
-21 -87 -5 -10 -9 -24 -9 -33 0 -20 -45 -99 -90 -160 -38 -52 -155 -138 -200
-148 -14 -3 -52 -12 -85 -21 -94 -24 -245 -18 -320 14 -11 4 -35 14 -54 21
-81 30 -182 131 -233 231 -35 69 -47 112 -62 231 -21 165 13 344 88 461 115
179 314 261 549 225z m9836 0 c174 -29 308 -146 369 -324 22 -64 32 -140 32
-250 l0 -115 -370 0 -370 0 0 -44 c0 -131 167 -268 309 -253 96 10 148 30 224
83 26 19 50 34 53 34 13 0 113 -116 114 -130 0 -17 -51 -69 -111 -112 -54 -40
-182 -79 -276 -85 -128 -9 -243 18 -364 83 -27 14 -107 90 -144 135 -23 28
-65 106 -65 121 0 5 -6 24 -14 41 -38 85 -38 349 0 434 8 17 14 36 14 42 0 6
4 19 9 29 5 9 19 38 31 64 36 76 130 164 220 206 97 45 222 61 339 41z m1235
1 c29 -11 32 -33 20 -185 l-7 -80 -102 -1 c-93 -2 -106 -4 -146 -30 -49 -30
-70 -55 -83 -99 -6 -16 -11 -200 -13 -407 l-3 -378 -140 0 -140 0 0 585 0 585
129 0 c145 0 134 6 147 -82 5 -38 10 -48 25 -48 11 0 19 3 19 8 0 12 52 66 90
94 56 41 151 59 204 38z m-13426 -19 c9 -5 28 -14 42 -20 35 -17 82 -61 107
-102 61 -97 72 -206 73 -671 0 -310 -2 -348 -17 -363 -13 -14 -34 -16 -127
-14 -61 2 -118 5 -128 7 -15 3 -17 43 -20 425 -3 441 -4 446 -48 488 -37 36
-78 49 -155 49 -55 0 -86 -5 -114 -20 -45 -22 -91 -73 -91 -100 0 -10 -4 -22
-10 -25 -6 -4 -10 -151 -10 -410 0 -358 -2 -404 -16 -409 -9 -3 -72 -6 -140
-6 l-124 0 0 585 0 585 125 0 c139 0 137 1 150 -77 4 -24 11 -45 16 -48 4 -3
34 15 66 41 66 54 128 85 193 95 54 9 204 2 228 -10z m3796 -1 c6 -6 17 -10
24 -10 21 0 94 -62 123 -104 13 -20 29 -36 36 -36 6 0 36 23 65 51 30 29 82
65 118 82 60 29 73 31 180 31 106 0 119 -2 170 -28 30 -15 64 -37 75 -49 38
-41 75 -96 75 -109 0 -8 4 -18 9 -24 19 -19 24 -112 28 -530 l4 -432 -26 -6
c-14 -4 -77 -6 -140 -5 l-114 1 -3 421 -3 422 -27 45 c-37 64 -67 78 -164 79
-72 1 -85 -2 -122 -26 -51 -35 -77 -69 -87 -113 -5 -19 -10 -211 -12 -426 -3
-361 -5 -392 -21 -396 -32 -8 -237 -9 -249 0 -9 6 -13 113 -15 433 l-3 426
-28 36 c-41 54 -73 67 -164 67 -85 0 -96 -5 -165 -69 l-38 -34 0 -434 0 -433
-99 0 c-54 0 -119 3 -145 6 l-46 7 2 576 3 576 130 0 130 0 3 -57 c3 -51 6
-58 23 -58 12 0 42 18 67 41 55 48 119 80 182 90 57 10 211 2 224 -11z m5381
-11 c46 -22 83 -54 125 -107 14 -17 30 -32 35 -32 6 0 33 23 60 51 30 30 76
63 115 82 62 29 71 31 185 31 112 -1 123 -2 170 -28 57 -31 119 -94 139 -140
40 -97 40 -90 44 -553 2 -249 0 -453 -5 -454 -33 -4 -241 -7 -255 -3 -15 4
-17 44 -20 432 l-3 427 -29 38 c-41 53 -73 67 -156 67 -95 0 -155 -32 -201
-106 -18 -30 -19 -53 -19 -448 l0 -417 -137 3 -138 3 -5 410 c-6 430 -9 456
-52 503 -38 40 -72 52 -151 52 -68 0 -79 -3 -123 -33 -26 -18 -51 -39 -55 -47
-38 -71 -39 -76 -41 -485 l-3 -400 -115 -3 c-63 -2 -125 0 -137 3 l-23 5 0
580 0 580 130 0 129 0 10 -37 c6 -21 11 -48 11 -59 0 -37 24 -33 73 10 57 52
127 88 187 97 76 13 206 1 255 -22z m-1775 -394 c0 -401 1 -417 21 -460 23
-50 59 -75 132 -95 36 -10 54 -10 73 -1 14 6 34 11 45 11 27 0 89 33 116 62
37 40 43 109 43 515 l0 384 138 -3 137 -3 3 -560 c1 -308 0 -570 -3 -582 -5
-22 -9 -23 -135 -23 l-129 0 -3 52 c-4 67 -25 74 -74 26 -93 -94 -277 -123
-428 -70 -57 21 -153 94 -155 119 -1 7 -12 32 -26 57 -15 27 -25 61 -25 85 0
22 -4 43 -10 46 -6 4 -10 158 -10 431 l0 424 145 0 145 0 0 -415z m-6515
-1784 c156 -22 292 -107 370 -231 33 -52 67 -149 72 -203 l5 -48 -144 3 -143
3 -3 33 c-4 36 -40 108 -75 149 -12 13 -49 38 -82 54 -51 25 -72 29 -140 29
-194 0 -302 -103 -357 -340 -16 -68 -22 -385 -8 -450 19 -93 43 -170 52 -170
4 0 8 -7 8 -15 0 -47 131 -175 179 -175 11 0 23 -4 26 -10 4 -6 56 -10 123
-10 124 0 173 11 237 52 l35 23 0 158 0 157 -134 0 c-74 0 -141 3 -150 6 -13
5 -16 24 -16 105 l0 99 305 0 305 0 0 -305 0 -306 -23 -22 c-38 -37 -77 -67
-85 -67 -4 0 -19 -11 -34 -25 -15 -14 -36 -25 -48 -25 -11 0 -20 -4 -20 -10 0
-5 -11 -10 -24 -10 -14 0 -28 -4 -31 -10 -3 -5 -15 -10 -27 -10 -11 0 -34 -6
-51 -14 -84 -38 -390 -38 -474 0 -17 8 -36 14 -42 14 -6 0 -26 9 -46 20 -20
11 -40 20 -46 20 -6 0 -16 6 -24 13 -7 6 -25 21 -40 32 -39 28 -115 105 -115
116 0 5 -4 9 -10 9 -5 0 -10 5 -10 10 0 6 -11 28 -25 50 -14 22 -25 46 -25 55
0 8 -4 15 -8 15 -4 0 -13 21 -20 48 -7 26 -19 68 -28 95 -18 56 -26 348 -14
472 11 101 34 198 61 247 5 10 9 23 9 28 0 35 175 249 203 250 5 0 22 9 38 20
39 28 156 70 199 71 19 0 44 5 55 10 21 9 139 5 240 -10z m6753 -150 c9 -1 12
-34 12 -130 0 -162 0 -161 115 -161 97 0 95 3 95 -111 l0 -79 -86 0 c-136 0
-124 33 -124 -345 0 -189 4 -334 10 -350 5 -14 22 -37 36 -50 23 -22 36 -25
95 -25 l69 0 0 -96 c0 -80 -3 -99 -17 -110 -22 -16 -268 -20 -278 -4 -3 6 -15
10 -26 10 -11 0 -25 4 -32 10 -82 65 -99 89 -126 171 -7 24 -11 154 -11 402 0
422 9 387 -104 387 l-66 0 0 95 0 95 60 0 c39 0 70 6 85 16 24 16 25 19 25
144 l0 129 28 3 c21 2 172 2 240 -1z m-5405 -267 c121 -15 271 -128 324 -244
53 -115 63 -163 63 -303 l0 -137 -344 0 c-189 0 -358 -3 -376 -6 -30 -7 -32
-9 -27 -41 8 -48 53 -135 85 -166 35 -32 97 -67 122 -67 10 0 22 -4 25 -10 3
-5 35 -10 70 -10 35 0 67 5 70 10 3 6 21 10 40 10 19 0 37 5 40 10 3 6 13 10
21 10 9 0 37 18 63 40 44 38 71 50 71 32 0 -4 25 -33 55 -64 30 -31 55 -61 55
-66 0 -12 -111 -112 -125 -112 -5 0 -21 -9 -35 -20 -14 -11 -35 -20 -47 -20
-12 0 -28 -6 -35 -14 -38 -38 -338 -38 -393 0 -11 8 -29 14 -40 14 -11 0 -31
9 -45 20 -14 11 -31 20 -37 20 -7 0 -21 8 -32 19 -10 10 -25 23 -33 27 -25 16
-95 108 -123 161 -63 122 -83 320 -49 476 17 80 19 87 60 172 58 121 236 254
341 256 21 0 47 5 58 10 19 8 70 6 178 -7z m2482 -3 c45 -8 142 -47 155 -62 3
-3 19 -13 35 -23 51 -30 96 -98 160 -241 19 -42 26 -92 32 -232 l5 -123 -360
0 c-198 0 -367 -3 -376 -6 -41 -16 5 -149 73 -212 57 -51 138 -82 219 -82 28
0 54 5 57 10 3 6 19 10 35 10 30 0 130 47 130 61 0 5 6 9 13 9 7 0 19 9 27 20
14 19 17 17 77 -48 34 -37 63 -71 63 -76 0 -16 -105 -116 -122 -116 -10 0 -18
-4 -18 -8 0 -5 -19 -15 -42 -22 -24 -8 -50 -19 -58 -26 -30 -24 -209 -35 -315
-20 -44 7 -78 18 -137 47 -10 5 -25 9 -33 9 -8 0 -15 5 -15 10 0 6 -7 10 -15
10 -17 0 -165 144 -165 160 0 6 -11 27 -23 48 -13 20 -27 48 -30 62 -30 128
-36 165 -37 231 -1 257 113 482 286 563 32 15 67 31 76 37 10 5 35 9 55 10 21
1 49 5 63 10 27 9 103 5 185 -10z m1226 3 c5 -3 9 -63 9 -135 l0 -129 -97 0
c-107 0 -155 -15 -206 -62 -51 -48 -57 -100 -57 -498 l0 -360 -140 0 -140 0 2
588 3 587 124 3 c68 1 128 -1 133 -6 5 -5 12 -35 15 -66 3 -31 10 -59 15 -62
4 -3 34 21 66 53 31 33 71 64 87 70 17 6 44 15 60 21 29 10 107 8 126 -4z
m749 -2 c116 -17 225 -87 285 -182 14 -22 25 -48 25 -59 0 -11 5 -23 10 -26 6
-4 10 -136 10 -363 0 -270 3 -371 14 -412 7 -30 16 -70 19 -87 l7 -33 -139 0
c-133 0 -138 1 -149 23 -6 12 -12 31 -14 42 -5 30 -30 29 -68 -5 -19 -17 -51
-38 -72 -47 -21 -9 -38 -20 -38 -24 0 -18 -172 -28 -240 -14 -38 7 -143 55
-148 68 -2 4 -9 7 -15 8 -17 0 -97 100 -97 120 0 10 -5 19 -12 21 -7 3 -11 39
-12 110 0 99 2 110 29 163 37 71 80 113 148 147 108 52 172 66 372 76 l130 7
3 70 c4 119 -51 194 -153 208 -103 15 -203 -37 -220 -112 l-7 -31 -139 0 -139
0 0 26 c0 43 49 132 101 183 46 46 142 101 174 101 7 0 17 5 20 10 3 6 25 10
48 11 23 1 53 5 67 10 26 8 102 5 200 -9z m1924 7 c141 -25 221 -64 302 -145
56 -57 124 -167 124 -200 0 -8 4 -22 9 -32 29 -56 41 -269 20 -360 -27 -121
-61 -207 -104 -262 -43 -55 -115 -117 -161 -139 -27 -12 -62 -29 -77 -37 -16
-8 -45 -14 -66 -14 -20 0 -42 -5 -48 -11 -19 -19 -248 4 -271 27 -7 8 -20 14
-29 14 -50 0 -226 152 -239 207 -4 12 -10 23 -15 23 -5 0 -9 8 -9 18 0 10 -4
22 -8 27 -16 19 -41 122 -51 205 -16 140 20 331 81 437 41 71 138 157 221 197
42 20 91 36 109 37 18 1 44 5 58 9 36 12 86 11 154 -1z m1297 -1 c45 -13 43
-6 32 -170 l-6 -98 -99 0 c-112 0 -150 -12 -204 -66 -43 -44 -46 -69 -49 -479
-2 -187 -4 -348 -4 -357 -1 -16 -14 -18 -136 -18 -131 0 -135 1 -140 23 -3 12
-4 276 -3 587 l3 565 130 0 130 0 10 -62 c5 -34 13 -65 18 -69 4 -4 28 15 55
42 62 66 73 74 135 95 63 21 79 22 128 7z m-6277 -38 c116 -54 167 -145 185
-335 10 -101 13 -707 4 -772 l-5 -43 -138 0 -138 0 -4 418 c-4 466 -4 465 -74
518 -35 27 -44 29 -128 29 -90 0 -92 0 -144 -39 -37 -26 -55 -47 -59 -67 -3
-16 -10 -32 -14 -35 -5 -3 -9 -189 -9 -415 l0 -409 -145 0 -145 0 0 580 0 580
133 0 132 0 13 -40 c6 -22 12 -47 12 -55 0 -31 29 -26 67 10 21 20 70 52 108
70 66 33 76 35 178 35 99 0 113 -2 171 -30z"/>
<path d="M6970 14785 l0 -115 78 0 c133 0 179 24 189 98 7 52 -18 99 -62 118
-21 8 -69 14 -120 14 l-85 0 0 -115z"/>
<path d="M8107 14844 c-8 -14 -97 -257 -97 -266 0 -4 47 -8 105 -8 l105 0 -45
125 c-49 138 -60 162 -68 149z"/>
<path d="M10677 14844 c-8 -14 -97 -257 -97 -266 0 -4 47 -8 105 -8 l105 0
-45 125 c-49 138 -60 162 -68 149z"/>
<path d="M5460 11040 c-39 -9 -130 -100 -130 -129 0 -9 -5 -22 -11 -28 -13
-13 -32 -146 -32 -223 0 -146 35 -263 98 -326 18 -18 55 -38 88 -49 50 -15 64
-16 100 -5 77 22 112 42 142 78 l30 35 0 271 c0 303 2 293 -75 349 -41 29
-148 43 -210 27z"/>
<path d="M15340 11043 c-58 -9 -71 -15 -109 -51 -21 -20 -42 -50 -47 -67 -10
-40 -10 -481 0 -520 16 -58 76 -103 168 -124 47 -12 64 -12 105 0 58 17 140
93 149 139 4 17 11 33 15 36 12 7 12 390 0 412 -5 9 -15 33 -22 52 -7 19 -32
53 -55 76 -50 49 -108 62 -204 47z"/>
<path d="M1464 11397 c-2 -7 -3 -120 -2 -252 l3 -240 189 -3 c120 -1 193 1
200 8 5 5 18 10 28 10 28 0 99 70 119 118 22 50 26 163 8 221 -14 46 -62 103
-112 130 -35 19 -53 21 -233 21 -148 0 -196 -3 -200 -13z"/>
<path d="M2995 10621 c-131 -23 -213 -158 -159 -264 35 -67 73 -87 169 -87 58
0 81 5 117 25 55 31 88 68 88 99 0 14 5 28 10 31 6 3 10 45 10 92 0 70 -3 88
-17 99 -19 14 -146 17 -218 5z"/>
<path d="M6770 11050 c-14 -4 -36 -11 -50 -14 -33 -7 -96 -69 -122 -120 -58
-112 -62 -375 -7 -491 33 -70 105 -135 148 -135 11 0 23 -4 26 -10 3 -5 26
-10 50 -10 24 0 47 5 50 10 3 6 17 10 29 10 31 0 106 67 134 121 47 87 63 258
37 384 -9 44 -20 84 -26 89 -5 6 -9 18 -9 28 0 11 -24 43 -53 72 -41 40 -64
55 -93 59 -21 4 -50 9 -64 11 -14 3 -36 1 -50 -4z"/>
<path d="M16605 11049 c-11 -4 -32 -10 -48 -13 -66 -15 -147 -142 -147 -231
l0 -45 230 0 230 0 1 23 c4 87 -13 149 -51 194 -38 43 -53 52 -111 67 -61 15
-76 16 -104 5z"/>
<path d="M6595 8416 c-60 -22 -116 -90 -144 -174 -13 -39 -21 -77 -18 -85 3
-8 23 -17 44 -20 61 -11 379 -8 407 3 30 11 34 48 14 109 -28 89 -47 116 -109
155 -37 23 -144 30 -194 12z"/>
<path d="M9073 8417 c-58 -22 -104 -68 -134 -135 -37 -81 -39 -139 -6 -147 13
-4 114 -5 225 -3 167 2 205 6 213 18 11 17 2 110 -12 125 -5 5 -9 18 -9 30 0
29 -79 101 -126 114 -49 14 -110 13 -151 -2z"/>
<path d="M11069 7996 c-67 -13 -122 -48 -150 -95 -23 -39 -28 -135 -8 -173 14
-28 44 -58 58 -58 5 0 11 -5 13 -12 3 -8 30 -12 79 -13 100 0 174 34 222 105
24 34 25 221 1 244 -18 19 -127 20 -215 2z"/>
<path d="M13018 8418 c-84 -22 -161 -131 -179 -252 -20 -141 -6 -286 36 -373
30 -59 97 -123 131 -123 13 0 26 -4 29 -10 8 -12 99 -13 123 -1 9 5 31 15 47
22 41 19 75 55 103 109 65 124 64 369 -1 500 -58 115 -162 162 -289 128z"/>
</g>
</svg>
